# Rhino

v 157.4798889160156 4.355974247971517e-09 133.3500061035156
v 157.4798889160156 4.473480696987053e-09 190.5
v 157.4798889160156 4.593847524603234e-09 152.3999938964844
v 157.4798889160156 4.638481598817634e-09 171.4499969482422
v 157.4799041748047 3.941257986639357e-09 114.3000030517578
v 157.4799041748047 4.082449933662247e-09 209.5500030517578
v 157.4799194335938 3.366094070145209e-09 95.25
v 157.4799194335938 3.44899353521555e-09 228.6000061035156
v 157.4799346923828 2.556715283930089e-09 247.6499938964844
v 157.4799346923828 2.646877828027527e-09 76.19999694824219
v 157.4799652099609 -3.294534921646118 261.4057006835938
v 157.4799652099609 1.389219961289712e-09 266.7000122070312
v 157.4799652099609 1.800005366980884e-09 57.15000152587891
v 157.47998046875 -5.389683723449707 225.2767181396484
v 157.47998046875 -5.254244327545166 260.7042541503906
v 157.47998046875 -3.437427759170532 225.6034240722656
v 157.47998046875 -3.150153398513794 297.8296813964844
v 157.47998046875 -1.344900369644165 262.0541687011719
v 157.47998046875 8.418719610325809e-10 38.09999847412109
v 157.4799957275391 -15.23999977111816 19.04999923706055
v 157.4799957275391 -15.23999977111816 38.09999847412109
v 157.4799957275391 -15.23999977111816 57.15000152587891
v 157.4799957275391 -15.23999977111816 76.19999694824219
v 157.4799957275391 -15.23999977111816 95.25
v 157.4799957275391 -15.23999977111816 114.3000030517578
v 157.4799957275391 -15.23999977111816 133.3500061035156
v 157.4799957275391 -15.23999977111816 152.3999938964844
v 157.4799957275391 -15.23999977111816 171.4499969482422
v 157.4799957275391 -12.96494388580322 297.9242248535156
v 157.4799957275391 -11.01054286956787 297.5667419433594
v 157.4799957275391 -8.158695220947266 7.299276828765869
v 157.4799957275391 -8.021385192871094 44.45260238647461
v 157.4799957275391 -7.615251541137695 152.2644805908203
v 157.4799957275391 -7.482102394104004 188.7693328857422
v 157.4799957275391 -7.348171234130859 224.8637237548828
v 157.4799957275391 -5.661161422729492 152.5317535400391
v 157.4799957275391 -5.526775360107422 189.0635223388672
v 157.4799957275391 -5.115704536437988 297.6005249023438
v 157.4799957275391 -3.579803228378296 189.2236633300781
v 157.4799957275391 -1.496120929718018 225.5994873046875
v 157.4799957275391 -1.194780349731445 298.3835144042969
v 157.4799957275391 -6.988819245545841e-11 285.75
v 157.4800109863281 -15.23999977111816 4.883091760804481e-12
v 157.4800109863281 -15.23999977111816 190.5
v 157.4800109863281 -15.23999977111816 209.5500030517578
v 157.4800109863281 -15.23999977111816 228.6000061035156
v 157.4800109863281 -15.23999977111816 247.6499938964844
v 157.4800109863281 -15.23999977111816 266.7000122070312
v 157.4800109863281 -15.23999977111816 285.75
v 157.4800109863281 -15.23999977111816 304.7999877929688
v 157.4800109863281 -14.89543914794922 6.106873989105225
v 157.4800109863281 -14.89505290985107 298.7252502441406
v 157.4800109863281 -14.03915786743164 6.300248622894287
v 157.4800109863281 -13.89047527313232 42.55729675292969
v 157.4800109863281 -11.65275287628174 115.3435668945312
v 157.4800109863281 -10.12190532684326 7.164212703704834
v 157.4800109863281 -9.982752799987793 43.90617752075195
v 157.4800109863281 -9.844833374023438 79.26350402832031
v 157.4800109863281 -9.705180168151855 115.4643173217773
v 157.4800109863281 -9.569276809692383 152.0188140869141
v 157.4800109863281 -9.43787956237793 188.5239562988281
v 157.4800109863281 -9.307708740234375 224.6376495361328
v 157.4800109863281 -9.17579460144043 260.0701293945312
v 157.4800109863281 -9.039498329162598 297.4618225097656
v 157.4800109863281 -7.885693073272705 79.71846771240234
v 157.4800109863281 -7.749375820159912 115.7720108032227
v 157.4800109863281 -7.214852333068848 260.2042846679688
v 157.4800109863281 -6.197548389434814 7.31801176071167
v 157.4800109863281 -6.059869289398193 44.63790512084961
v 157.4800109863281 -5.92508602142334 80.00897979736328
v 157.4800109863281 -5.792805671691895 116.0687484741211
v 157.4800109863281 -3.716832160949707 152.6829986572266
v 157.4800109863281 -1.788676381111145 152.6334838867188
v 157.4800109863281 -1.644765257835388 189.1464996337891
v 157.4800109863281 -0.3442716896533966 298.6853332519531
v 157.4800109863281 -2.111265190452016e-10 19.04999923706055
v 157.4800262451172 -15.04022216796875 262.1259155273438
v 157.4800262451172 -13.7388973236084 79.03653717041016
v 157.4800262451172 -13.58935260772705 115.5209732055664
v 157.4800262451172 -13.07187175750732 260.9425659179688
v 157.4800262451172 -11.94251346588135 43.16989898681641
v 157.4800262451172 -11.79731559753418 78.94175720214844
v 157.4800262451172 -11.51395130157471 151.9286346435547
v 157.4800262451172 -11.38305187225342 188.4308166503906
v 157.4800262451172 -11.13745403289795 260.3133239746094
v 157.4800262451172 -7.078331470489502 297.471923828125
v 157.4800262451172 -3.846968412399292 116.2344436645508
v 157.4800262451172 -0.3354905545711517 6.091257095336914
v 157.4800415039062 -13.4440336227417 152.0669555664062
v 157.4800415039062 -11.25885200500488 224.6576690673828
v 157.4800415039062 -3.972527265548706 80.05973052978516
v 157.4800415039062 -2.16106390953064 43.86825561523438
v 157.4800415039062 -1.924873232841492 116.1978988647461
v 157.4800415039062 -1.837004770521844e-09 304.7999877929688
v 157.4800415039062 -1.342594480036041e-09 8.348086111276132e-11
v 157.4800567626953 -13.30624675750732 188.5410766601562
v 157.4800567626953 -12.08730030059814 6.896749019622803
v 157.4800567626953 -4.097782135009766 44.44351196289062
v 157.4800567626953 -2.270284652709961 6.905832290649414
v 157.4800720214844 -13.18076801300049 224.8768005371094
v 157.4800720214844 -4.227627754211426 7.219627380371094
v 157.4800872802734 -2.049804449081421 79.90187072753906
v 157.4801025390625 -15.21347236633301 221.2657470703125
v 157.4801025390625 -0.02490358613431454 83.06737518310547
vt 0.02005451917648315 0.01855829544365406
vt 0.02005451917648315 0.1388698816299438
vt 0.1400749385356903 0.01855829544365406
vt 0.1400749385356903 0.1388698816299438
vt 0.1400749385356903 0.2591814398765564
vt 0.1400749385356903 0.3794930279254913
vt 0.1400749385356903 0.4998046159744263
vt 0.1400749385356903 0.6201161742210388
vt 0.1400749385356903 0.7404277920722961
vt 0.1400749385356903 0.8607393503189087
vt 0.1400749385356903 0.9810509085655212
vt 0.2600953578948975 0.01855829544365406
vt 0.2600953578948975 0.1388698816299438
vt 0.2600953578948975 0.2591814398765564
vt 0.2600953578948975 0.3794930279254913
vt 0.2600953578948975 0.4998046159744263
vt 0.2600953578948975 0.6201161742210388
vt 0.2600953578948975 0.7404277920722961
vt 0.2600953578948975 0.8607393503189087
vt 0.2600953578948975 0.9810509085655212
vt 0.3801157474517822 0.01855829544365406
vt 0.3801157474517822 0.1388698816299438
vt 0.3801157474517822 0.2591814398765564
vt 0.3801157474517822 0.3794930279254913
vt 0.3801157474517822 0.4998046159744263
vt 0.3801157474517822 0.6201161742210388
vt 0.3801157474517822 0.7404277920722961
vt 0.3801157474517822 0.8607393503189087
vt 0.3801157474517822 0.9810509085655212
vt 0.5001361966133118 0.01855829544365406
vt 0.5001361966133118 0.1388698816299438
vt 0.5001361966133118 0.2591814398765564
vt 0.5001361966133118 0.3794930279254913
vt 0.5001361966133118 0.4998046159744263
vt 0.5001361966133118 0.6201161742210388
vt 0.5001361966133118 0.7404277920722961
vt 0.5001361966133118 0.8607393503189087
vt 0.5001361966133118 0.9810509085655212
vt 0.6201565861701965 0.01855829544365406
vt 0.6201565861701965 0.1388698816299438
vt 0.6201565861701965 0.2591814398765564
vt 0.6201565861701965 0.3794930279254913
vt 0.6201565861701965 0.4998046159744263
vt 0.6201565861701965 0.6201161742210388
vt 0.6201565861701965 0.7404277920722961
vt 0.6201565861701965 0.8607393503189087
vt 0.6201565861701965 0.9810509085655212
vt 0.7401769757270813 0.01855829544365406
vt 0.7401769757270813 0.1388698816299438
vt 0.7401769757270813 0.2591814398765564
vt 0.7401769757270813 0.3794930279254913
vt 0.7401769757270813 0.4998046159744263
vt 0.7401769757270813 0.6201161742210388
vt 0.7401769757270813 0.7404277920722961
vt 0.7401769757270813 0.8607393503189087
vt 0.7401769757270813 0.9810509085655212
vt 0.8601974248886108 0.01855829544365406
vt 0.8601974248886108 0.1388698816299438
vt 0.8601974248886108 0.2591814398765564
vt 0.8601974248886108 0.3794930279254913
vt 0.8601974248886108 0.4998046159744263
vt 0.8601974248886108 0.6201161742210388
vt 0.8601974248886108 0.7404277920722961
vt 0.8601974248886108 0.8607393503189087
vt 0.8601974248886108 0.9810509085655212
vt 0.06894102692604065 1
vt 0.06448006629943848 0.9390982985496521
vt 0.06009507179260254 0.8757091164588928
vt 0.05585146322846413 0.8128191232681274
vt 0.05160466581583023 0.7505740523338318
vt 0.04727373644709587 0.6879945397377014
vt 0.04294149205088615 0.6251572966575623
vt 0.03862310573458672 0.5624620318412781
vt 0.03430511057376862 0.4998935461044312
vt 0.0299812126904726 0.4373240768909454
vt 0.02565444633364677 0.374628871679306
vt 0.02132509090006351 0.3117917776107788
vt 0.01702208444476128 0.2492134124040604
vt 0.01275210175663233 0.1869731843471527
vt 0.008447404950857162 0.1240628287196159
vt 0.004123256541788578 0.06068067252635956
vt 0 4.757023270940408e-05
vt 0.9310510158538818 0
vt 0.9356248378753662 0.06047883257269859
vt 0.9400413632392883 0.1238659769296646
vt 0.9442609548568726 0.1867966651916504
vt 0.9484862089157104 0.2490261197090149
vt 0.9528185129165649 0.3115994036197662
vt 0.9571509957313538 0.3744436502456665
vt 0.961468517780304 0.4371400773525238
vt 0.9657861590385437 0.499705582857132
vt 0.9701188802719116 0.562274158000946
vt 0.9744656682014465 0.6249710321426392
vt 0.9788177609443665 0.6878105401992798
vt 0.9831374883651733 0.7503865361213684
vt 0.9874100089073181 0.8126206398010254
vt 0.9916961789131165 0.8755428194999695
vt 0.9959699511528015 0.9389292597770691
vt 1 0.9994487762451172
vt 0.02005451917648315 0.2732018828392029
vt 0.08766908198595047 0.9810509085655212
vt 0.9123095273971558 0.01855829544365406
vt 0.9802178144454956 0.7279307246208191
vt 0.9802178144454956 0.9810509085655212
vn -1 -7.019612894509919e-06 -1.571094543351137e-07
vn -1 -8.107640496746171e-06 -1.572477231093217e-06
vn -1 -5.161039666745637e-07 -2.852196132607787e-07
vn -1 -1.452422111469787e-06 -1.369267238260363e-06
vn -1 -1.850841908890288e-05 -5.144068495610554e-07
vn -1 -1.51487502080272e-05 9.118710977418232e-07
vn -1 -7.898289368313272e-06 5.196115466787887e-07
vn -1 -5.255626547295833e-06 1.041494783748931e-07
vn -1 -4.476896720007062e-06 3.554714922415769e-08
vn -1 6.826213393651415e-06 2.977535018544586e-07
vn -1 1.762819192663301e-05 -3.798016052769526e-07
vn -1 7.09084872596577e-07 -3.934227095214737e-07
vn -1 -3.651660108516808e-06 -6.729954975526198e-07
vn -1 -1.673949009273201e-05 -1.372008000544156e-07
vn -1 -1.156376856670249e-05 4.065948360221228e-07
vn -1 -6.812125775468303e-06 3.039139642169175e-07
vn -1 -4.018701474706177e-06 8.059120659709151e-08
vn -1 -4.791668743564514e-06 -2.286874121182336e-07
vn -1 -1.357541123070405e-06 -5.326047016751545e-07
vn -1 1.350385900877882e-06 -4.381395228847396e-07
vn -1 7.412793365801917e-06 -2.222626704906361e-07
vn -1 -2.17393426282797e-06 -1.088785950287274e-07
vn -1 -1.005081776384031e-05 5.918951373473647e-08
vn -1 -9.113587111642119e-06 1.136517795430336e-07
vn -1 -5.118648914503865e-06 9.397582800829696e-08
vn -1 -2.481528554199031e-06 5.011974479884884e-08
vn -1 -4.693960818258347e-06 -7.197947571313534e-09
vn -1 -1.289536794502055e-05 -2.529830211983608e-08
vn -1 -2.287813367729541e-05 -8.593964651026909e-08
vn -1 -1.965227284017601e-06 2.0048423721164e-07
vn -1 -7.288152119144797e-06 3.847673610835045e-07
vn -1 -8.043948582781013e-06 1.629403101333082e-07
vn -1 -5.946205419604667e-06 -6.471614710790163e-08
vn -1 -2.435486976537504e-06 -1.176054240659141e-07
vn -1 6.237764296201931e-07 -3.149472505015183e-08
vn -1 1.633930423849961e-06 1.212625306834525e-07
vn -1 -3.682279441363789e-07 2.721015448514663e-07
vn -1 -4.213963165966561e-06 -7.522742428989204e-09
vn -1 -1.108453034248669e-05 5.719925866287667e-07
vn -1 -1.15598204502021e-05 2.403364476322167e-07
vn -1 -5.3676981224271e-06 -6.023138610089518e-08
vn -1 -1.598838025529403e-06 -2.415663402643986e-07
vn -1 6.611595608774223e-07 -2.971073627122678e-07
vn -1 4.349432401795639e-06 -2.486935386514233e-07
vn -1 1.132278885052074e-05 -8.52593160516335e-08
vn -1 1.946027077792678e-05 1.495562997888555e-07
vn -1 2.903993663494475e-05 -1.293481375341798e-07
vn -1 -4.211614850646583e-06 1.085786948351597e-06
vn -1 -4.829518729820848e-06 -7.578651661788172e-08
vn -1 3.476737447272171e-06 -4.019111372599582e-07
vn -1 4.831075330002932e-06 -3.142125137856056e-07
vn -1 3.342801619510283e-06 -3.65075834452e-07
vn -1 7.151646059355699e-06 -6.88749935306987e-07
vn -1 1.810849789762869e-05 -4.943031512993912e-07
vn -1 1.175797842734028e-05 -4.352328630830016e-07
vn -1 2.051723095064517e-05 -5.748423177465156e-07
vn -1 1.827803680498619e-05 1.683050982137502e-06
vn -1 1.471023279009387e-05 -4.883512474407325e-07
vn -1 1.469790095143253e-05 -6.413716846509487e-07
vn -1 1.205236185342073e-05 -1.372830524815072e-07
vn -1 5.947305908193812e-06 -2.757976176326338e-07
vn -1 1.15056491267751e-05 -1.379188915962004e-06
vn -1 1.59779483510647e-05 2.631738382774529e-08
vn -1 -1.987818723137025e-05 7.189620987446688e-07
vn -1 -2.871413198590744e-05 -9.266163942811545e-07
vn -1 -3.464343080850085e-06 -4.767902908042743e-07
vn -1 -4.256972715666052e-06 1.643332012690735e-07
vn -1 -4.306061782699544e-06 5.434969239104248e-07
vn -1 -5.020275239076e-06 5.69362100577564e-07
vn -1 -6.286091320362175e-06 2.687877440621378e-07
vn -1 -7.531761184509378e-06 -7.477428454194524e-08
vn -1 -8.620679182058666e-06 9.344176987724495e-08
vn -1 -9.349874744657427e-06 5.05597029132332e-07
vn -1 -1.090607929654652e-05 8.085324907369795e-07
vn -1 -1.382097343594069e-05 1.012025791169435e-06
vn -1 -1.336453624389833e-05 1.032382670018706e-06
vn -1 -6.387465418811189e-06 2.985960634305229e-07
vn -1 -1.329525730398018e-06 -1.37136362354795e-06
vn -1 -4.961511876899749e-06 -2.128052074112929e-06
vn -1 -9.951091669790912e-06 -1.209396486956393e-06
vn -1 -1.005874855763977e-05 -3.308686018499429e-07
vn -1 -8.038384294195566e-06 -2.009244610690075e-07
vn -1 4.10967186326161e-05 2.356280447202153e-06
vn -1 3.860853757942095e-05 8.962055630945542e-07
vn -1 3.41622690029908e-05 -1.591543536960671e-07
vn -1 2.802103335852735e-05 -5.4403756166721e-07
vn -1 2.213586958532687e-05 -5.03823002873105e-07
vn -1 1.849289219535422e-05 -2.189470080793399e-07
vn -1 1.607466219866183e-05 9.619223817480815e-08
vn -1 1.338661058980506e-05 2.037514263975027e-07
vn -1 1.242620692210039e-05 -2.706109967220982e-07
vn -1 1.427233837603126e-05 -1.034133447319618e-06
vn -1 1.33897592604626e-05 -1.678586500020174e-06
vn -1 5.836765012645628e-06 -1.028421820592484e-06
vn -1 4.005257494554826e-07 1.506064563727705e-06
vn -1 5.25836412634817e-06 2.644922233230318e-06
vn -1 1.476707893743878e-05 8.511896112395334e-07
vn -1 2.303968904016074e-05 -1.077340129995719e-06
vn -1 2.885701542254537e-05 -1.778328964974207e-06
vn -1 -2.534760596972774e-06 -6.454441745518125e-07
vn -1 7.239275419124169e-07 -2.878056193367229e-07
vn -1 3.534489951562136e-05 1.864193677647563e-06
vn -1 1.496014192525763e-06 4.220890446049452e-07
vn -1 1.362488183076493e-05 -1.543755388411228e-06
f 80/4/4 77/2/2 52/1/1 29/3/3
f 77/2/2 80/4/4 100/5/5
f 85/13/13 80/4/4 29/3/3 30/12/12
f 90/14/14 100/5/5 80/4/4 85/13/13
f 84/15/15 96/6/6 100/5/5 90/14/14
f 83/16/16 89/7/7 96/6/6 84/15/15
f 55/17/17 79/8/8 89/7/7 83/16/16
f 82/18/18 78/9/9 79/8/8 55/17/17
f 81/19/19 54/10/10 78/9/9 82/18/18
f 97/20/20 53/11/11 54/10/10 81/19/19
f 63/22/22 85/13/13 30/12/12 64/21/21
f 62/23/23 90/14/14 85/13/13 63/22/22
f 61/24/24 84/15/15 90/14/14 62/23/23
f 60/25/25 83/16/16 84/15/15 61/24/24
f 59/26/26 55/17/17 83/16/16 60/25/25
f 58/27/27 82/18/18 55/17/17 59/26/26
f 57/28/28 81/19/19 82/18/18 58/27/27
f 56/29/29 97/20/20 81/19/19 57/28/28
f 67/31/31 63/22/22 64/21/21 86/30/30
f 35/32/32 62/23/23 63/22/22 67/31/31
f 34/33/33 61/24/24 62/23/23 35/32/32
f 33/34/34 60/25/25 61/24/24 34/33/33
f 66/35/35 59/26/26 60/25/25 33/34/34
f 65/36/36 58/27/27 59/26/26 66/35/35
f 32/37/37 57/28/28 58/27/27 65/36/36
f 31/38/38 56/29/29 57/28/28 32/37/37
f 15/40/40 67/31/31 86/30/30 38/39/39
f 14/41/41 35/32/32 67/31/31 15/40/40
f 37/42/42 34/33/33 35/32/32 14/41/41
f 36/43/43 33/34/34 34/33/33 37/42/42
f 71/44/44 66/35/35 33/34/34 36/43/43
f 70/45/45 65/36/36 66/35/35 71/44/44
f 69/46/46 32/37/37 65/36/36 70/45/45
f 68/47/47 31/38/38 32/37/37 69/46/46
f 11/49/49 15/40/40 38/39/39 17/48/48
f 16/50/50 14/41/41 15/40/40 11/49/49
f 39/51/51 37/42/42 14/41/41 16/50/50
f 72/52/52 36/43/43 37/42/42 39/51/51
f 87/53/53 71/44/44 36/43/43 72/52/52
f 91/54/54 70/45/45 71/44/44 87/53/53
f 98/55/55 69/46/46 70/45/45 91/54/54
f 101/56/56 68/47/47 69/46/46 98/55/55
f 18/58/58 11/49/49 17/48/48 41/57/57
f 40/59/59 16/50/50 11/49/49 18/58/58
f 74/60/60 39/51/51 16/50/50 40/59/59
f 73/61/61 72/52/52 39/51/51 74/60/60
f 93/62/62 87/53/53 72/52/52 73/61/61
f 102/63/63 91/54/54 87/53/53 93/62/62
f 92/64/64 98/55/55 91/54/54 102/63/63
f 99/65/65 101/56/56 98/55/55 92/64/64
f 52/1/1 49/81/81 50/82/82
f 52/1/1 77/2/2 49/81/81
f 48/80/80 49/81/81 77/2/2
f 52/1/1 50/82/82 29/3/3
f 77/2/2 46/78/78 47/79/79
f 46/78/78 77/2/2 103/100/100
f 100/5/5 103/100/100 77/2/2
f 77/2/2 47/79/79 48/80/80
f 45/77/77 46/78/78 103/100/100
f 50/82/82 30/12/12 29/3/3
f 50/82/82 86/30/30 64/21/21
f 64/21/21 30/12/12 50/82/82
f 96/6/6 44/76/76 45/77/77
f 28/75/75 44/76/76 96/6/6
f 100/5/5 96/6/6 45/77/77
f 89/7/7 28/75/75 96/6/6
f 45/77/77 103/100/100 100/5/5
f 86/30/30 50/82/82 94/83/83
f 89/7/7 26/73/73 27/74/74
f 24/71/71 78/9/9 23/70/70
f 25/72/72 79/8/8 24/71/71
f 22/69/69 54/10/10 21/68/68
f 21/68/68 54/10/10 20/67/67
f 78/9/9 22/69/69 23/70/70
f 79/8/8 25/72/72 26/73/73
f 79/8/8 78/9/9 24/71/71
f 53/11/11 20/67/67 54/10/10
f 78/9/9 54/10/10 22/69/69
f 53/11/11 43/66/66 51/101/101
f 51/101/101 43/66/66 20/67/67
f 43/66/66 53/11/11 97/20/20
f 43/66/66 97/20/20 56/29/29
f 51/101/101 20/67/67 53/11/11
f 31/38/38 43/66/66 56/29/29
f 89/7/7 79/8/8 26/73/73
f 89/7/7 27/74/74 28/75/75
f 94/83/83 17/48/48 38/39/39
f 42/84/84 18/58/58 41/57/57
f 94/83/83 75/102/102 41/57/57
f 41/57/57 17/48/48 94/83/83
f 18/58/58 9/86/86 40/59/59
f 74/60/60 4/90/90 73/61/61
f 6/88/88 74/60/60 40/59/59
f 42/84/84 41/57/57 75/102/102
f 18/58/58 42/84/84 12/85/85
f 12/85/85 9/86/86 18/58/58
f 40/59/59 9/86/86 8/87/87
f 6/88/88 2/89/89 74/60/60
f 3/91/91 73/61/61 4/90/90
f 4/90/90 74/60/60 2/89/89
f 8/87/87 6/88/88 40/59/59
f 94/83/83 42/84/84 75/102/102
f 94/83/83 38/39/39 86/30/30
f 1/92/92 73/61/61 3/91/91
f 93/62/62 7/94/94 102/63/63
f 104/103/103 88/104/104 92/64/64 102/63/63
f 1/92/92 93/62/62 73/61/61
f 95/99/99 31/38/38 68/47/47
f 95/99/99 101/56/56 99/65/65
f 95/99/99 68/47/47 101/56/56
f 93/62/62 1/92/92 5/93/93
f 102/63/63 7/94/94 104/103/103
f 88/104/104 13/96/96 19/97/97
f 7/94/94 10/95/95 104/103/103
f 13/96/96 104/103/103 10/95/95
f 13/96/96 88/104/104 104/103/103
f 19/97/97 76/98/98 88/104/104
f 88/104/104 76/98/98 95/99/99
f 99/65/65 92/64/64 88/104/104
f 99/65/65 88/104/104 95/99/99
f 7/94/94 93/62/62 5/93/93
f 43/66/66 31/38/38 95/99/99
v 157.4799957275391 -15.23999977111816 0
v 157.4799957275391 -15.23999977111816 304.7999877929688
v 335.2799987792969 -15.23999977111816 0
v 335.2799987792969 -15.23999977111816 304.7999877929688
vt 0 0
vt 0 1
vt 1 0
vt 1 1
vn 0 -1 0
vn 0 -1 0
vn 0 -1 0
vn 0 -1 0
f 108/108/108 106/106/106 105/105/105 107/107/107
v 0 0 0
v 0 0 304.7999877929688
v 157.4799957275391 0 0
v 157.4799957275391 0 304.7999877929688
vt 0 0
vt 0 1
vt 1 0
vt 1 1
vn 0 -1 0
vn 0 -1 0
vn 0 -1 0
vn 0 -1 0
f 112/112/112 110/110/110 109/109/109 111/111/111
